<svg xmlns="http://www.w3.org/2000/svg" viewBox="0 0 32 32" width="32" height="32">
  <defs>
    <linearGradient id="brainGradient" x1="0%" y1="0%" x2="100%" y2="100%">
      <stop offset="0%" style="stop-color:#00d4ff;stop-opacity:1" />
      <stop offset="50%" style="stop-color:#0099cc;stop-opacity:1" />
      <stop offset="100%" style="stop-color:#006699;stop-opacity:1" />
    </linearGradient>
    <filter id="glow">
      <feGaussianBlur stdDeviation="1" result="coloredBlur"/>
      <feMerge> 
        <feMergeNode in="coloredBlur"/>
        <feMergeNode in="SourceGraphic"/>
      </feMerge>
    </filter>
  </defs>
  
  <!-- Background circle -->
  <circle cx="16" cy="16" r="15" fill="rgba(10, 10, 10, 0.9)" stroke="url(#brainGradient)" stroke-width="1"/>
  
  <!-- Brain icon -->
  <path d="M12 8c-1.1 0-2 .9-2 2 0 .3.1.6.2.9C9.4 11.3 9 12.1 9 13c0 .8.3 1.5.8 2.1-.5.4-.8 1-.8 1.7 0 1.1.9 2 2 2h.2c.6.6 1.4 1 2.3 1h4c1.7 0 3-1.3 3-3 0-.4-.1-.8-.3-1.1.7-.6 1.1-1.5 1.1-2.5 0-1.8-1.5-3.2-3.3-3.2-.4 0-.8.1-1.2.2C16.4 8.8 15.3 8 14 8c-.7 0-1.3.3-1.8.7C12.1 8.3 12.1 8 12 8z" 
        fill="url(#brainGradient)" 
        filter="url(#glow)"
        transform="translate(2, 4) scale(0.8)"/>
  
  <!-- Neural connections -->
  <circle cx="10" cy="14" r="0.8" fill="#00d4ff" opacity="0.7"/>
  <circle cx="22" cy="16" r="0.8" fill="#00d4ff" opacity="0.7"/>
  <circle cx="16" cy="20" r="0.8" fill="#00d4ff" opacity="0.7"/>
  
  <!-- Connection lines -->
  <line x1="10" y1="14" x2="16" y2="20" stroke="#00d4ff" stroke-width="0.5" opacity="0.5"/>
  <line x1="22" y1="16" x2="16" y2="20" stroke="#00d4ff" stroke-width="0.5" opacity="0.5"/>
</svg>